<svg xmlns="http://www.w3.org/2000/svg" width="304" height="228" viewBox="0 0 304 228">
    <g fill="none" fill-rule="evenodd">
        <path fill="#D0D0D0" d="M10.256 0h283.488c3.567 0 4.86.371 6.163 1.069 1.304.697 2.327 1.72 3.024 3.024.698 1.303 1.069 2.596 1.069 6.163V228H0V10.256c0-3.567.371-4.86 1.069-6.163.697-1.304 1.72-2.327 3.024-3.024C5.396.37 6.689 0 10.256 0z"/>
        <g>
            <path d="M0 0L56 0 56 56 0 56z" transform="translate(124 86)"/>
            <path fill="#9B9B9B" fill-rule="nonzero" d="M45.522 48.788H7.212c-1.276 0-2.31-1.034-2.31-2.31V14.141c0-1.275 1.034-2.31 2.31-2.31h1.353L3.5 6.768 6.768 3.5 52.5 49.234 49.232 52.5l-3.71-3.712zM17.735 21.001c-4.961 5.476-4.754 13.88.47 19.105 5.225 5.225 13.63 5.432 19.106.47l-3.273-3.272c-3.664 3.167-9.152 2.968-12.576-.456-3.425-3.425-3.624-8.912-.456-12.576l-3.273-3.27h.002zm33.363 20.361l-9.343-9.343c.528-4.241-.931-8.489-3.953-11.511-3.022-3.022-7.27-4.48-11.511-3.953l-7.285-7.283 2.065-2.06h13.858l4.62 4.62h9.24c1.275 0 2.309 1.034 2.309 2.31v27.222-.002zM31.483 21.747c2.306.942 4.136 2.772 5.077 5.077l-5.077-5.077z" transform="translate(124 86)"/>
        </g>
    </g>
</svg>
